<svg id="Group_46" data-name="Group 46" xmlns="http://www.w3.org/2000/svg" xmlns:xlink="http://www.w3.org/1999/xlink" width="43.432" height="25" viewBox="0 0 43.432 25">
  <defs>
    <clipPath id="clip-path">
      <rect id="Rectangle_28" data-name="Rectangle 28" width="43.432" height="25" fill="none"/>
    </clipPath>
  </defs>
  <g id="Group_45" data-name="Group 45" transform="translate(0 0)" clip-path="url(#clip-path)">
    <path id="Path_75" data-name="Path 75" d="M120.431,37.656q-2.719-.156-5.465-.27V50.04h5.465Z" transform="translate(-77 -25.04)" fill="#191d19"/>
    <path id="Path_76" data-name="Path 76" d="M36.928,38.251,45.466,48.1l9.547-11.053h0l.462-.535c-1.872-.049-3.749-.089-5.636-.111l-.729.843h.006l-3.653,4.228L41.92,37.385h0l-.854-.985q-2.837.032-5.648.109Z" transform="translate(-23.722 -24.379)" fill="#191d19"/>
    <path id="Path_77" data-name="Path 77" d="M0,37.639v2.57H0V50.03H5.465V37.372q-2.744.116-5.465.267" transform="translate(0 -25.03)" fill="#191d19"/>
    <path id="Path_78" data-name="Path 78" d="M90.292,10.021l4.385-5.08V10.18q2.742.115,5.465.269V9.781h0V0h-6.92L84.674,9.892q2.817.046,5.618.129" transform="translate(-56.711 0)" fill="#b23800"/>
    <path id="Path_79" data-name="Path 79" d="M5.465,10.175V4.941l4.4,5.076q2.807-.085,5.631-.128L6.919,0H0V10.442q2.722-.153,5.465-.267" transform="translate(0 0)" fill="#b23800"/>
  </g>
</svg>
