<svg xmlns="http://www.w3.org/2000/svg" width="34.746" height="20" viewBox="0 0 34.746 20">
  <g id="Group_72" data-name="Group 72" transform="translate(-60 -81)">
    <path id="Path_35" data-name="Path 35" d="M28.437,12.421q-2.454.161-4.863.329l-3.208,3.714-2.837-3.27q-2.169.166-4.3.34l7.137,8.233Z" transform="translate(57.03 78.211)" fill="#fff"/>
    <path id="Path_36" data-name="Path 36" d="M4.371,23.257V14.5q-2.212.2-4.372.4v8.35Z" transform="translate(60.001 77.743)" fill="#fff"/>
    <path id="Path_37" data-name="Path 37" d="M43.539,22.626V11.694q-2.2.124-4.372.256V22.626Z" transform="translate(51.207 78.374)" fill="#fff"/>
    <path id="Path_45" data-name="Path 45" d="M36.669,3.954V8.082q2.171-.131,4.372-.256V0H35.506L28.043,8.638q2.406-.165,4.858-.322Z" transform="translate(53.704 80.999)" fill="#fff"/>
    <path id="Path_46" data-name="Path 46" d="M4.371,3.954l4.881,5.63q2.126-.177,4.295-.346L5.534,0H0V10.4q2.159-.2,4.372-.4Z" transform="translate(60.001 80.999)" fill="#fff"/>
  </g>
</svg>
