<svg id="Group_24" data-name="Group 24" xmlns="http://www.w3.org/2000/svg" xmlns:xlink="http://www.w3.org/1999/xlink" width="237.813" height="20" viewBox="0 0 237.813 20">
  <defs>
    <clipPath id="clip-path">
      <rect id="Rectangle_3" data-name="Rectangle 3" width="237.813" height="20" fill="none"/>
    </clipPath>
  </defs>
  <g id="Group_23" data-name="Group 23" clip-path="url(#clip-path)">
    <path id="Path_35" data-name="Path 35" d="M28.437,12.421q-2.454.161-4.863.329l-3.208,3.714-2.837-3.27q-2.169.166-4.3.34l7.137,8.232Z" transform="translate(-2.97 -2.789)" fill="#fff"/>
    <path id="Path_36" data-name="Path 36" d="M4.371,23.257V14.5q-2.212.2-4.372.4v8.35Z" transform="translate(0 -3.256)" fill="#fff"/>
    <path id="Path_37" data-name="Path 37" d="M43.539,22.626V11.694q-2.2.124-4.372.256V22.626Z" transform="translate(-8.794 -2.625)" fill="#fff"/>
    <path id="Path_38" data-name="Path 38" d="M56.92,22.209H61.8l2.372-3.535H81.757l2.371,3.535h4.884l-6.743-9.976c-.537-.793-1.077-1.6-1.615-2.394q-2.385.074-4.746.156L79.9,15.884H66.083L69.9,10.216q-2.518.1-5.008.2c-.407.6-.817,1.212-1.223,1.813q-3.349,4.953-6.744,9.976" transform="translate(-12.781 -2.209)" fill="#fff"/>
    <path id="Path_39" data-name="Path 39" d="M114.912,21.988V14.453h7.209l9.07,7.535h5.582L127.7,14.453h3.117a6.89,6.89,0,0,0,3.721-.93,6.4,6.4,0,0,0,2.257-2.3,5.975,5.975,0,0,0,.73-2.367q-2.223.008-4.435.022a3.931,3.931,0,0,1-.737,1.718,2.711,2.711,0,0,1-2.326,1.069H114.912V9.085q-2.193.037-4.372.08V21.988Z" transform="translate(-24.82 -1.988)" fill="#fff"/>
    <path id="Path_40" data-name="Path 40" d="M154.746,21.993h4.883L162,18.458h17.582l2.371,3.535h4.884L180.1,12.017c-.672-.993-1.347-2-2.021-3q-2.44-.035-4.9-.063l4.544,6.709H163.909l4.545-6.757q-2.417-.021-4.846-.035c-.706,1.048-1.414,2.1-2.118,3.141q-3.349,4.953-6.744,9.976" transform="translate(-34.746 -1.993)" fill="#fff"/>
    <path id="Path_41" data-name="Path 41" d="M237.151,10.52q-2.2-.1-4.415-.189l-4.791,5.545-5.133-5.918q-2.351-.08-4.726-.152l9.858,11.372Z" transform="translate(-48.968 -2.202)" fill="#fff"/>
    <path id="Path_42" data-name="Path 42" d="M212.739,22.14V9.65q-2.178-.062-4.372-.118V22.14Z" transform="translate(-46.786 -2.14)" fill="#fff"/>
    <path id="Path_43" data-name="Path 43" d="M251.906,22.459V11.165q-2.173-.111-4.372-.215V22.459Z" transform="translate(-55.58 -2.458)" fill="#fff"/>
    <path id="Path_44" data-name="Path 44" d="M265.286,22.8h4.883l2.372-3.535h17.582l2.371,3.535h4.884l-6.014-8.9q-2.536-.221-5.135-.43l2.033,3H274.449l2.49-3.7q-2.309-.163-4.661-.317c-.083.122-.166.246-.248.368q-3.349,4.953-6.744,9.976" transform="translate(-59.566 -2.796)" fill="#fff"/>
    <path id="Path_45" data-name="Path 45" d="M36.669,3.954V8.081q2.171-.131,4.372-.256V0H35.506L28.043,8.638q2.405-.165,4.858-.322Z" transform="translate(-6.297 0)" fill="#fff"/>
    <path id="Path_46" data-name="Path 46" d="M4.371,3.954l4.881,5.63q2.126-.177,4.295-.346L5.534,0H0V10.4q2.159-.2,4.372-.4Z" transform="translate(0 0)" fill="#fff"/>
    <path id="Path_47" data-name="Path 47" d="M75.523,3.442l2.121,3.131q2.362-.083,4.747-.16Q80.245,3.227,78.082,0H72.966q-2.343,3.5-4.66,6.932,2.487-.1,5-.2Z" transform="translate(-15.337 0)" fill="#fff"/>
    <path id="Path_48" data-name="Path 48" d="M114.912,2.79h15.116a2.711,2.711,0,0,1,2.326,1.069,3.908,3.908,0,0,1,.745,1.786q2.21-.014,4.429-.022a6.123,6.123,0,0,0-.709-2.392,6.218,6.218,0,0,0-2.233-2.3A7.005,7.005,0,0,0,130.819,0H110.54V5.935q2.18-.043,4.372-.08Z" transform="translate(-24.82 0)" fill="#fff"/>
    <path id="Path_49" data-name="Path 49" d="M173.6,3.442l1.539,2.273q2.457.026,4.9.06Q178.1,2.9,176.158,0h-5.116q-1.905,2.843-3.793,5.647,2.428.015,4.842.037Z" transform="translate(-37.553 0)" fill="#fff"/>
    <path id="Path_50" data-name="Path 50" d="M212.739,3.954,214.8,6.33q2.373.071,4.723.149L213.9,0h-5.535V6.15q2.194.056,4.372.118Z" transform="translate(-46.786 0)" fill="#fff"/>
    <path id="Path_51" data-name="Path 51" d="M245.463,3.954v3.3q2.2.1,4.372.215V0H244.3l-5.987,6.93q2.218.093,4.412.192Z" transform="translate(-53.51 0)" fill="#fff"/>
    <path id="Path_52" data-name="Path 52" d="M283.59,3.442,287.6,9.357c1.73.137,3.445.278,5.131.422Q289.46,4.943,286.148,0h-5.116q-2.866,4.277-5.693,8.465c1.568.1,3.117.211,4.657.32Z" transform="translate(-61.823 0)" fill="#fff"/>
  </g>
</svg>
